<?xml version="1.0" standalone="no"?><svg xmlns="http://www.w3.org/2000/svg" viewBox="0 0 1440 320"><path fill="#202c59" fill-opacity="1" d="M0,160L26.7,138.7C53.3,117,107,75,160,64C213.3,53,267,75,320,85.3C373.3,96,427,96,480,112C533.3,128,587,160,640,149.3C693.3,139,747,85,800,101.3C853.3,117,907,203,960,213.3C1013.3,224,1067,160,1120,165.3C1173.3,171,1227,245,1280,261.3C1333.3,277,1387,235,1413,213.3L1440,192L1440,0L1413.3,0C1386.7,0,1333,0,1280,0C1226.7,0,1173,0,1120,0C1066.7,0,1013,0,960,0C906.7,0,853,0,800,0C746.7,0,693,0,640,0C586.7,0,533,0,480,0C426.7,0,373,0,320,0C266.7,0,213,0,160,0C106.7,0,53,0,27,0L0,0Z"></path></svg>